<?xml version="1.0" encoding="UTF-8"?>
<svg id="Layer_2" data-name="Layer 2" xmlns="http://www.w3.org/2000/svg" viewBox="0 0 741.27 741.27">
  <defs>
    <style>
      .cls-1 {
        fill: #fff;
      }

      .cls-2 {
        fill: #1ea6a5;
      }
    </style>
  </defs>
  <g id="Layer_3" data-name="Layer 3">
    <circle class="cls-1" cx="370.64" cy="370.64" r="370.64"/>
  </g>
  <g id="Layer_2-2" data-name="Layer 2">
    <g>
      <path class="cls-2" d="M213.95,189v289.64s100.78-7.36,156.34,73.64c0,0,56.38-73.64,157.02-74.45V189l-157.02,36.27-156.34-36.27Z"/>
      <path class="cls-2" d="M144.73,206.18l52.36,18.82v273.47s105.55,12.2,132.55,78c0,0-34.36-58.56-184.91-58.56V206.18Z"/>
      <path class="cls-2" d="M596.54,206.18l-52.36,18.82v273.47s-105.55,12.2-132.55,78c0,0,34.36-58.56,184.91-58.56V206.18Z"/>
      <path class="cls-2" d="M100.33,240.54l26.18,17.18v277.36s90-1.64,139.91,47.45c0,0-104.73-40.91-166.09-30.27V240.54Z"/>
      <path class="cls-2" d="M640.94,240.54l-26.18,17.18v277.36s-90-1.64-139.91,47.45c0,0,104.73-40.91,166.09-30.27V240.54Z"/>
      <circle class="cls-1" cx="370.64" cy="438.42" r="49.09"/>
    </g>
  </g>
</svg>